<svg enable-background="new 0 0 549.226 292.17" height="293" viewBox="0 0 549.226 292.17" width="550" xmlns="http://www.w3.org/2000/svg"><path d="m150.443 127.411s-5.617-50.62-52.105-89.929-97.338-36.435-97.338-36.435 5.617 50.62 52.105 89.929 97.338 36.435 97.338 36.435z" fill="#7bdaac"/><path d="m148.413 128.447c-10.091 0-54.987-2.067-95.954-36.708-46.257-39.114-52.396-90.072-52.453-90.582-.03-.273.053-.546.23-.756s.434-.337.708-.352c.512-.028 51.781-2.445 98.04 36.67 46.258 39.114 52.397 90.072 52.453 90.582.03.273-.053.546-.23.756s-.433.337-.707.353c-.059.003-.784.037-2.087.037zm-146.267-126.431c1.157 7.526 9.698 52.761 51.605 88.197 41.905 35.433 87.931 36.341 95.547 36.23-1.157-7.526-9.698-52.761-51.605-88.197-41.906-35.433-87.928-36.345-95.547-36.23z" fill="#112c41"/><path d="m228.226 151.1s2.2-50.883-37.723-96.846-90.611-50.908-90.611-50.908-2.2 50.883 37.723 96.846 90.611 50.908 90.611 50.908z" fill="#7bdaac"/><path d="m228.226 152.1c-.032 0-.065-.001-.097-.005-.511-.05-51.546-5.513-91.27-51.248-39.724-45.734-37.989-97.032-37.966-97.545.012-.274.136-.532.343-.712s.479-.269.753-.24c.511.05 51.546 5.513 91.27 51.248 39.724 45.736 37.989 97.032 37.967 97.545-.012.274-.136.532-.343.712-.184.159-.417.245-.657.245zm-127.351-147.622c-.009 7.614 1.505 53.624 37.494 95.058 36.013 41.462 81.336 49.379 88.873 50.433.009-7.61-1.503-53.622-37.494-95.059-35.988-41.435-81.332-49.375-88.873-50.432z" fill="#112c41"/><path d="m186.754 164.693s-24.065-44.886-81.85-64.053-103.904 2.438-103.904 2.438 24.065 44.886 81.85 64.053 103.904-2.438 103.904-2.438z" fill="#7bdaac"/><path d="m131.607 176.001c-14.637 0-31.34-2.039-49.073-7.92-57.497-19.072-82.173-64.078-82.416-64.53-.13-.242-.154-.527-.068-.788s.276-.474.525-.591c.465-.218 47.146-21.553 104.644-2.481 57.497 19.072 82.173 64.078 82.416 64.53.13.242.154.527.068.788s-.276.474-.525.591c-.321.149-22.748 10.401-55.571 10.401zm-129.183-72.451c3.877 6.554 28.65 45.354 80.74 62.632 52.091 17.28 95.141.977 102.166-1.961-3.877-6.554-28.65-45.354-80.74-62.632-52.09-17.279-95.141-.975-102.166 1.961z" fill="#112c41"/><path d="m298.852 184.94s6.617-50.499-29.157-99.76-85.841-58.596-85.841-58.596-6.617 50.499 29.157 99.76 85.841 58.596 85.841 58.596z" fill="#7bdaac"/><path d="m298.852 185.94c-.061 0-.122-.005-.183-.017-.505-.094-50.871-9.975-86.467-58.992s-29.406-99.969-29.339-100.477c.036-.272.182-.518.404-.679s.5-.224.771-.174c.505.094 50.871 9.975 86.467 58.992s29.406 99.969 29.339 100.478c-.036.272-.182.518-.404.679-.172.124-.378.19-.588.19zm-114.116-158.142c-.671 7.584-3.164 53.551 29.084 97.959 32.248 44.407 76.73 56.261 84.15 57.97.671-7.584 3.164-53.551-29.084-97.958-32.248-44.409-76.73-56.262-84.15-57.971z" fill="#112c41"/><path d="m241.353 173.089s-42.088-28.679-102.189-18.964-91.01 50.192-91.01 50.192 42.088 28.679 102.189 18.964 91.01-50.192 91.01-50.192z" fill="#7bdaac"/><path d="m125.665 226.268c-46.449 0-77.711-20.877-78.074-21.125-.227-.154-.38-.396-.424-.667s.026-.548.192-.767c.312-.408 31.844-40.907 91.645-50.573 59.802-9.666 102.487 18.836 102.911 19.125.227.154.38.396.424.667s-.026.548-.193.767c-.312.408-31.844 40.906-91.645 50.573-8.66 1.401-16.969 2-24.836 2zm-76.03-22.19c6.467 4.019 46.371 26.973 100.548 18.216 54.178-8.757 84.818-43.114 89.689-48.966-6.467-4.02-46.372-26.974-100.548-18.216-54.178 8.757-84.817 43.114-89.689 48.966z" fill="#112c41"/><path d="m310.752 181.824s-46.03-21.798-103.894-2.873-82.117 63.71-82.117 63.71 46.03 21.798 103.894 2.873 82.117-63.71 82.117-63.71z" fill="#7bdaac"/><path d="m180.5 254.201c-33.182 0-55.864-10.483-56.187-10.636-.248-.118-.437-.332-.522-.593s-.06-.546.071-.787c.244-.452 25.109-45.353 82.686-64.185 57.577-18.831 104.169 2.701 104.633 2.92.248.118.437.332.522.593s.06.546-.071.787c-.244.452-25.109 45.354-82.686 64.185-17.491 5.72-33.968 7.716-48.446 7.716zm-54.333-12.006c7.012 2.967 49.994 19.449 102.157 2.389 52.198-17.071 77.104-55.757 81.002-62.292-7.008-2.965-49.991-19.451-102.158-2.39-52.162 17.06-77.097 55.755-81.001 62.293z" fill="#112c41"/><path d="m294.112 161.163s-29.795-41.306-89.608-52.656-102.668 16.17-102.668 16.17 29.795 41.306 89.608 52.656 102.668-16.17 102.668-16.17z" fill="#7bdaac"/><path d="m220.261 181.05c-9.109 0-18.818-.801-29.004-2.734-59.516-11.293-89.932-52.637-90.232-53.054-.161-.223-.223-.501-.171-.771.051-.27.211-.506.442-.655.432-.277 43.878-27.603 103.395-16.311 59.516 11.293 89.932 52.637 90.232 53.054.161.223.223.501.171.771-.051.27-.211.506-.442.655-.358.229-30.274 19.045-74.391 19.045zm-116.951-56.094c4.71 5.982 34.401 41.162 88.32 51.394 53.92 10.233 94.433-11.625 101.007-15.467-4.71-5.982-34.401-41.162-88.32-51.394s-94.433 11.626-101.007 15.467z" fill="#112c41"/><path d="m401.224 187.851s-48.819-14.511-103.113 13.03-71.421 75.506-71.421 75.506 48.819 14.511 103.113-13.03 71.421-75.506 71.421-75.506z" fill="#7bdaac"/><path d="m259.352 281.133c-19.771 0-32.697-3.712-32.947-3.787-.263-.078-.483-.261-.607-.506s-.142-.53-.05-.789c.173-.483 17.886-48.656 71.911-76.061 54.024-27.406 103.359-13.244 103.851-13.097.263.078.483.261.607.506s.142.53.05.789c-.173.483-17.886 48.656-71.911 76.061-26.498 13.442-51.873 16.884-70.904 16.884zm-31.325-5.424c7.384 1.862 52.379 11.584 101.323-13.243 48.944-24.828 67.676-66.879 70.536-73.936-7.383-1.861-52.379-11.584-101.323 13.243-48.944 24.828-67.676 66.879-70.536 73.936z" fill="#112c41"/><path d="m548.226 159.145s-50.922-.915-95.863 40.155-48.605 91.868-48.605 91.868 50.922.915 95.863-40.155 48.605-91.868 48.605-91.868z" fill="#7bdaac"/><path d="m403.905 292.169c-.095 0-.151 0-.166 0-.274-.005-.535-.123-.72-.325-.185-.203-.279-.473-.259-.747.037-.512 4.21-51.668 48.928-92.535 44.717-40.865 96.04-40.419 96.556-40.417.274.005.535.123.72.325.185.203.279.473.259.747-.037.512-4.21 51.668-48.928 92.535-43.445 39.703-93.128 40.417-96.39 40.417zm143.214-132.012c-7.612.183-53.568 2.858-94.081 39.881s-47.306 82.553-48.172 90.118c7.612-.183 53.568-2.858 94.081-39.881 40.512-37.023 47.306-82.553 48.172-90.118z" fill="#112c41"/><path d="m367.907 193.907s4.419-50.738-33.458-98.401-88.303-54.816-88.303-54.816-4.419 50.738 33.458 98.401 88.303 54.816 88.303 54.816z" fill="#7bdaac"/><path d="m367.907 194.906c-.047 0-.094-.003-.14-.01-.508-.072-51.256-7.758-88.945-55.184s-33.716-98.598-33.672-99.109c.024-.274.159-.525.374-.696s.491-.246.762-.207c.508.072 51.256 7.758 88.946 55.184 37.689 47.426 33.716 98.598 33.671 99.11-.024.273-.159.525-.374.696-.178.141-.398.216-.622.216zm-120.828-153.041c-.341 7.606-.837 53.638 33.308 96.604 34.168 42.995 79.103 52.883 86.586 54.264.341-7.606.837-53.639-33.308-96.605-34.144-42.966-79.099-52.878-86.586-54.263z" fill="#112c41"/><path d="m548.226 159.145s-11.345-49.651-62.007-83.41-100.854-25.113-100.854-25.113 11.345 49.651 62.007 83.41 100.854 25.113 100.854 25.113z" fill="#7bdaac"/><path d="m533.2 161.084c-18.864 0-52.678-3.76-86.382-26.219-50.411-33.591-62.313-83.519-62.428-84.02-.061-.268-.01-.549.143-.777.152-.229.392-.385.663-.431.505-.087 51.167-8.325 101.578 25.267s62.314 83.519 62.428 84.019c.061.268.01.549-.143.777-.152.229-.392.384-.663.431-.167.028-5.845.953-15.196.953zm-146.586-109.63c2.006 7.345 15.643 51.313 61.313 81.746 45.671 30.433 91.5 26.089 99.051 25.113-2.006-7.345-15.643-51.312-61.313-81.745-45.672-30.434-91.501-26.089-99.051-25.114z" fill="#112c41"/><path d="m461.389 162.256s-9.967-49.946-59.676-85.093-100.12-27.894-100.12-27.894 9.967 49.946 59.676 85.093 100.12 27.894 100.12 27.894z" fill="#7bdaac"/><path d="m450.121 163.831c-17.847 0-53.999-3.601-89.43-28.652-49.463-34.973-59.979-85.211-60.08-85.714-.054-.269.006-.549.164-.773s.402-.373.674-.412c.507-.073 51.378-6.907 100.84 28.067 49.463 34.973 59.979 85.211 60.079 85.714.054.27-.006.549-.164.773-.158.225-.402.374-.674.413-.143.019-4.341.584-11.409.584zm-147.304-113.696c1.802 7.398 14.218 51.727 59.029 83.411s90.743 28.611 98.318 27.844c-1.802-7.397-14.217-51.727-59.029-83.411-44.811-31.684-90.742-28.611-98.318-27.844z" fill="#112c41"/><path d="m412.737 180.904s-38.656-33.16-99.462-30.157-96.006 39.812-96.006 39.812 38.656 33.16 99.462 30.157 96.006-39.812 96.006-39.812z" fill="#7bdaac"/><path d="m309.051 221.906c-56.102 0-92.061-30.269-92.434-30.588-.208-.179-.334-.435-.348-.709s.086-.542.276-.74c.355-.371 36.175-37.131 96.679-40.12 60.507-2.983 99.773 30.062 100.163 30.397.208.179.334.435.348.709s-.086.542-.276.74c-.355.371-36.175 37.131-96.679 40.12-2.615.129-5.195.191-7.729.191zm-90.284-31.421c5.982 4.71 43.098 31.938 97.915 29.233 54.814-2.708 89.068-33.462 94.557-38.739-5.982-4.71-43.098-31.93-97.915-29.232-54.815 2.706-89.068 33.461-94.557 38.738z" fill="#112c41"/><path d="m411.989 181.403s-20.664-46.55-76.864-69.958-103.799-5.288-103.799-5.288 20.664 46.55 76.864 69.958 103.799 5.288 103.799 5.288z" fill="#7bdaac"/><path d="m367.918 189.019c-17.192 0-38.045-2.791-60.112-11.981-55.922-23.291-77.186-70.006-77.394-70.475-.111-.251-.115-.537-.009-.79.105-.254.311-.453.567-.55.479-.182 48.617-17.992 104.539 5.3 55.921 23.291 77.185 70.006 77.394 70.475.111.251.115.537.009.79-.105.254-.311.453-.567.55-.29.11-18.049 6.681-44.427 6.681zm-135.207-82.285c3.379 6.824 25.201 47.357 75.864 68.458 50.663 21.102 94.806 8.043 102.029 5.635-3.379-6.823-25.201-47.356-75.864-68.458s-94.805-8.043-102.029-5.635z" fill="#112c41"/><path d="m480.353 171.38s-50.367-7.552-100.284 27.301-60.178 84.739-60.178 84.739 50.367 7.552 100.284-27.301 60.178-84.739 60.178-84.739z" fill="#7bdaac"/><path d="m331.941 285.065c-7.549 0-12.05-.633-12.199-.656-.272-.041-.515-.191-.672-.417-.157-.225-.215-.505-.16-.774.104-.502 10.917-50.677 60.585-85.357 49.669-34.681 100.497-27.546 101.004-27.47.272.041.514.191.672.417.157.225.215.505.16.774-.104.502-10.917 50.677-60.585 85.357-35.055 24.478-70.694 28.126-88.805 28.126zm-10.82-2.504c7.571.812 53.484 4.157 98.481-27.262 44.998-31.419 57.675-75.674 59.521-83.061-7.57-.812-53.483-4.156-98.481 27.262-44.998 31.42-57.675 75.675-59.521 83.061z" fill="#112c41"/><path d="m519.919 165.945s-42.81-27.59-102.641-16.338-87.694 52.509-87.694 52.509 40.81 27.59 100.641 16.338c59.832-11.252 89.694-52.509 89.694-52.509z" fill="#7bdaac"/><path d="m401.808 222.124c-43.812 0-72.443-18.948-72.784-19.179-.457-.31-.578-.931-.269-1.388.281-.416 28.785-41.732 88.337-52.933 59.534-11.194 102.936 16.203 103.368 16.481.231.148.39.386.441.656s-.011.548-.173.771c-.301.416-30.785 41.709-90.319 52.905-10.088 1.898-19.663 2.687-28.601 2.687zm-70.792-20.285c6.221 3.818 45.049 25.784 99.025 15.632 53.936-10.143 83.684-45.273 88.404-51.249-6.568-3.852-47.047-25.777-100.982-15.633-53.995 10.156-82.078 45.355-86.447 51.25z" fill="#112c41"/><path d="m548.226 159.145s-32.686-39.058-93.16-46.081-101.24 23.506-101.24 23.506 32.686 39.058 93.16 46.081 101.24-23.506 101.24-23.506z" fill="#7bdaac"/><path d="m464.857 184.689c-5.782 0-11.779-.323-17.986-1.044-60.174-6.988-93.482-46.039-93.812-46.432-.176-.21-.258-.484-.227-.757.032-.273.174-.521.394-.685.411-.308 41.782-30.689 101.955-23.699 60.174 6.987 93.482 46.038 93.811 46.432.176.21.258.484.227.757-.032.273-.174.521-.394.685-.368.275-33.692 24.743-83.968 24.743zm-109.541-47.945c5.125 5.625 37.267 38.583 91.786 44.915 54.514 6.328 93.353-18.382 99.635-22.686-5.128-5.629-37.27-38.583-91.785-44.914-54.553-6.332-93.361 18.38-99.636 22.685z" fill="#112c41"/></svg>