<svg height="1683.184" viewBox="0 0 1517.173 1683.184" width="1517.173" xmlns="http://www.w3.org/2000/svg"><path d="m830.362 1603.229-16.335-173.713-538.842-140.122-98.156 145.12c-4.731 3.837-7.89 8.371-9.245 13.668-29.458 115.125 638.01 274.526 664.192 172.192 1.416-5.535.803-11.267-1.612-17.145z" fill="#e8ae38"/><path d="m275.184 1289.394c-29.457 115.125 512.661 242.456 538.842 140.122s-513.198-240.346-538.842-140.122z" fill="#ffbe4a"/><path d="m662.171 1392.526c-22.513-97.522 18.447-245.255 18.447-245.255 325.655 42.676 509.451-381.325 622.513-823.249l-925.655-240.709c-113.062 441.923-160.331 915.915 150.662 1021.059 0 0-35.021 149.252-101.603 223.98" fill="#ffbe4a"/><path d="m377.476 83.313c-50.603 197.769 880.68 416.506 925.656 240.71s-881.602-412.881-925.656-240.71z" fill="#e8ae38"/><path d="m287.683 905.412c-254.183-61.492-315.771-447.538-204.824-651.649 45.359-85.835 167.18-65.275 238.206-39.066 38.026 7.959 71.696 24.013 67.863 68.243-3.474 31.148-31.543 53.586-62.695 50.111-38.52-3.773-105.46-42.265-144.68-23.222-75.126 144.206-44.103 445.795 141.674 487.359 79.865 20.645 42.045 136.6-35.544 108.224zm51.169-685.167c-.013-.001-.024-.002-.035-.003.011 0 .024.002.035.003zm1.708.248h-.002s0 0 .002 0z" fill="#ffbe4a"/><path d="m1015.346 974.261c182.912 52.762 354.961-196.873 358.321-359.44-25.256-35.539-102.456-33.924-138.056-49.114-28.993-11.913-42.838-45.074-30.926-74.063 17.879-40.637 55.122-38.547 92.298-27.267 74.887 11.122 191.614 51.592 190.177 148.664-.708 232.314-240.127 541.351-492.611 473.216-81.683-12.372-59.169-132.244 20.798-111.997zm263.404-513.545c-.01-.005-.021-.009-.033-.014.01.005.022.01.033.014zm-1.648-.616h-.002z" fill="#ffbe4a"/><path d="m524.457 245.018c-30.636 120.887-177.608 626.044-104.469 796.6 23.467 20.441 48.882 37.497 76.731 50.321 18.007-245.725 83.082-510.664 175.24-786.66-50.511-16.951-99.68-37.033-147.502-60.261z" fill="#ffdf9f"/><path d="m732.236 1683.111c-76.231.002-175.524-17.221-256.973-37.308-66.473-16.393-129.246-36.327-181.534-57.644-59.581-24.292-102.578-49.109-127.795-73.762-30.452-29.771-31.608-56.484-27.215-73.652 2.511-9.815 7.85-18.764 15.551-26.131l93.681-138.504c4.322-11.618 13.779-25.699 34.274-35.98 13.999-7.022 31.441-11.551 53.322-13.845 31.09-3.259 71.136-1.716 116.803 4.446 18.948-40.495 32.374-82.269 39.802-107.998-80.854-34.509-141.116-95.87-179.588-182.894-10.946.151-22.225-1.731-33.5-5.652-52.378-12.954-99.379-38.865-139.73-77.031-36.904-34.906-67.451-79.266-90.792-131.845-32.689-73.64-49.898-162.481-48.457-250.158 1.441-87.654 21.446-171.302 56.329-235.556 25.101-47.372 71.564-74.115 134.382-77.343 51.443-2.645 101.576 10.795 131.497 21.043 4.687-21.557 7.69-34.469 16.153-67.668 6.578-25.808 21.246-47.846 43.595-65.503 19.321-15.264 44.561-27.208 75.018-35.5 52.185-14.207 119.621-18.109 200.431-11.601 73.124 5.89 154.729 20.358 235.994 41.841 172.503 45.602 316.812 114.5 386.025 184.302 52.812 53.261 54.182 98.975 46.031 127.945-4.964 17.644-8.65 31.271-12.213 44.45-2.965 10.962-5.837 21.582-9.196 33.557 30.205 4.699 85.069 16.712 132.3 45.818 53.543 32.997 81.455 78.759 80.728 132.356-.255 73.118-22.881 156.101-63.718 233.687-40.843 77.597-98.603 147.258-162.642 196.152-45.724 34.91-93.821 59.149-142.955 72.043-53.723 14.099-107.397 14.251-159.56.46-14.56-2.449-27.674-7.687-38.729-15.329-69.123 53.149-144.304 79.922-224.276 79.926-7.189 0-14.408-.216-21.674-.648-5.705 25.361-13.906 67.504-16.97 111.518 43.211 16.787 79.202 34.945 104.944 53.009 18.143 12.731 31.283 25.294 40.171 38.405 12.922 19.059 14.375 36.1 12.544 48.45l15.582 165.7c3.326 10.404 3.736 21.075 1.161 31.143-4.009 15.67-16.812 36.599-55.038 47.307-19.919 5.58-45.233 7.993-73.764 7.994zm-535.112-226.323c1.48 4.561 10.521 22.253 63.186 50.022 74.805 39.444 201.535 78.97 322.86 100.696 59.361 10.63 112.252 16.046 152.982 15.658 44.037-.417 60.579-7.583 65.676-10.671-.68-2.094-1.128-4.259-1.334-6.456l-16.335-173.714c-.321-3.411-.055-6.853.787-10.174-.106-.75-2.352-12.157-32.735-32.265-25.424-16.826-62.34-34.159-106.756-50.123-12.196-4.384-20.199-16.104-19.841-29.059 2.341-84.866 25.127-167.95 26.097-171.446 3.994-14.407 17.987-23.673 32.808-21.732 90.402 11.845 171.352-14.42 247.467-80.304 6.648-5.754 15.487-8.301 24.178-6.971 8.691 1.332 16.361 6.41 20.981 13.891 4.131 6.688 11.499 10.879 21.9 12.454 1.12.17 2.229.403 3.323.698 104.434 28.181 194.694-18.079 252.023-61.85 117.091-89.399 202.369-250.261 202.771-382.494 0-.118.001-.235.003-.353.478-32.277-16.6-58.635-52.21-80.58-28.907-17.815-69.867-31.652-112.378-37.966-1.456-.216-2.895-.539-4.303-.967-9.66-2.931-17.802-4.7-24.891-5.409-8.893-.889-16.926-5.697-21.912-13.114s-6.405-16.671-3.872-25.241c7.744-26.197 12.41-43.447 17.812-63.421 3.603-13.323 7.329-27.099 12.375-45.036 5.571-19.801-4.818-43.167-30.879-69.449-61.092-61.612-198.559-126.193-358.754-168.541-164.188-43.404-315.713-54.752-405.331-30.355-43.827 11.931-69.475 31.421-76.232 57.929-9.89 38.802-11.941 48.307-18.735 79.803-1.107 5.131-2.335 10.827-3.741 17.308-1.83 8.443-7.21 15.687-14.764 19.877-7.554 4.191-16.549 4.922-24.679 2.007-5.635-2.02-12.094-3.781-19.75-5.384-1.44-.302-2.857-.709-4.238-1.218-40.319-14.878-82.889-22.414-116.804-20.668-41.773 2.147-69.412 17.065-84.493 45.606-.055.104-.11.207-.167.311-63.151 116.179-65.605 298.231-5.835 432.878 29.265 65.926 86.218 149.851 191.356 175.285 1.101.267 2.187.595 3.25.984 8.502 3.11 15.988 3.445 22.25.994 7.458-2.918 15.774-2.733 23.095.514s13.039 9.287 15.882 16.774c35.198 92.696 93.597 151.716 178.532 180.432 14.646 4.952 23.131 20.223 19.598 35.275-.853 3.633-21.345 89.862-61.172 166.248-5.973 11.455-18.607 17.801-31.362 15.75-45.367-7.292-85.229-10.038-115.272-7.938-31.51 2.201-43.42 9.294-45.363 11.823-.863 3.241-2.262 6.314-4.142 9.092l-98.157 145.121c-1.359 2.009-2.955 3.844-4.753 5.466zm605.663 158.334s0 0 0 0zm263.197-603.664c-14.488 0-28.93-1.486-43.256-4.479-10.147-2.12-18.48-9.328-22.041-19.063s-1.842-20.62 4.544-28.785c73.162-93.546 140.138-229.571 199.068-404.295 2.742-8.129 8.832-14.695 16.732-18.04 7.9-3.344 16.854-3.146 24.599.544.518.247.969.448 1.38.617.125.051.25.103.374.156 9.248 3.946 25.653 7.037 41.519 10.025 40.145 7.563 85.647 16.135 109.218 49.303 3.73 5.25 5.672 11.56 5.54 17.998-1.118 54.092-19.019 117.253-50.404 177.85-31.95 61.686-76.008 116.713-124.057 154.945-52.515 41.785-108.196 63.222-163.216 63.222zm185.61-409.632c-26.224 74.885-54.111 143.013-83.046 202.847-26.185 54.149-53.872 102.843-82.653 145.409 42.741-5.603 79.703-27.916 105.946-48.797 81.021-64.467 144.332-180.451 151.25-274.819-14.181-9.733-43.196-15.2-65.297-19.363-9.038-1.703-17.846-3.362-26.201-5.277zm-949.971 219.084c-3.38 0-6.782-.571-10.062-1.74-65.085-23.18-115.836-77.068-146.767-155.836-45.134-114.938-40.864-269.437 10.154-367.365 2.976-5.711 7.709-10.313 13.502-13.126 36.604-17.772 80.63-3.442 119.473 9.202 14.917 4.855 29.006 9.441 39.072 10.881 8.05 1.151 15.288 5.521 20.055 12.109 4.768 6.587 6.658 14.828 5.236 22.835-32.151 181.049-39.223 331.915-21.019 448.408 1.633 10.449-2.357 20.987-10.501 27.734-5.463 4.526-12.255 6.898-19.142 6.898zm-98.833-486.184c-37.828 83.278-39.182 212.367-2.148 306.678 12.021 30.613 32.058 67.652 64.285 94.414-4.154-49.911-4.666-104.481-1.506-162.962 3.584-66.339 11.987-139.454 25.008-217.69-6.214-1.88-12.579-3.951-19.078-6.067-21.38-6.959-49.452-16.095-66.562-14.372z" fill="#231f20"/></svg>